<svg xmlns="http://www.w3.org/2000/svg" xmlns:xlink="http://www.w3.org/1999/xlink" width="150" height="150" viewBox="0 0 150 150">
  <defs>
    <clipPath id="clip-_4-icone2">
      <rect width="150" height="150"/>
    </clipPath>
  </defs>
  <g id="_4-icone2" data-name="4-icone2" clip-path="url(#clip-_4-icone2)">
    <g id="Grupo_403" data-name="Grupo 403" transform="translate(-487 -6257)">
      <g id="Elipse_10" data-name="Elipse 10" transform="translate(488 6258)" fill="none" stroke="#7a2b58" stroke-width="3">
        <circle cx="74" cy="74" r="74" stroke="none"/>
        <circle cx="74" cy="74" r="72.5" fill="none"/>
      </g>
      <g id="E-learning_on_phone" transform="translate(481.242 6273.319)">
        <path id="Caminho_1714" data-name="Caminho 1714" d="M135.255,398.053a3.341,3.341,0,1,0,3.341,3.341,3.341,3.341,0,0,0-3.341-3.341Zm0,4.572a1.231,1.231,0,1,1,1.231-1.231,1.231,1.231,0,0,1-1.231,1.231Z" transform="translate(-77.641 -306.263)" fill="#7a2b58"/>
        <path id="Caminho_1715" data-name="Caminho 1715" d="M75.358,152.934H70.239a1.055,1.055,0,0,0-1.055,1.055v5.118a1.055,1.055,0,0,0,1.055,1.055h5.119a1.055,1.055,0,0,0,1.055-1.055v-5.118A1.055,1.055,0,0,0,75.358,152.934ZM74.3,158.053H71.294v-3.008H74.3Z" transform="translate(-28.149 -112.873)" fill="#7a2b58"/>
        <path id="Caminho_1716" data-name="Caminho 1716" d="M75.358,213.4H70.239a1.055,1.055,0,0,0-1.055,1.055v5.118a1.055,1.055,0,0,0,1.055,1.055h5.119a1.055,1.055,0,0,0,1.055-1.055v-5.118A1.055,1.055,0,0,0,75.358,213.4ZM74.3,218.515H71.294v-3.008H74.3Z" transform="translate(-28.149 -160.576)" fill="#7a2b58"/>
        <path id="Caminho_1717" data-name="Caminho 1717" d="M75.358,273.858H70.239a1.055,1.055,0,0,0-1.055,1.055v5.119a1.055,1.055,0,0,0,1.055,1.055h5.119a1.055,1.055,0,0,0,1.055-1.055v-5.119A1.055,1.055,0,0,0,75.358,273.858ZM74.3,278.977H71.294v-3.008H74.3Z" transform="translate(-28.149 -208.278)" fill="#7a2b58"/>
        <path id="Caminho_1718" data-name="Caminho 1718" d="M139.431,285.985H123.99a1.055,1.055,0,1,0,0,2.11h15.441a1.055,1.055,0,1,0,0-2.11Z" transform="translate(-70.557 -217.846)" fill="#7a2b58"/>
        <path id="Caminho_1719" data-name="Caminho 1719" d="M139.431,311.49H123.99a1.055,1.055,0,1,0,0,2.11h15.441a1.055,1.055,0,1,0,0-2.11Z" transform="translate(-70.557 -237.968)" fill="#7a2b58"/>
        <path id="Caminho_1720" data-name="Caminho 1720" d="M126.413,19.294a4.009,4.009,0,0,0-2.5-1.332c-.574-.074-1.232-.152-1.963-.226v-.758a2.758,2.758,0,0,0-2.3-2.727,51.345,51.345,0,0,0-9.013-.707V12.418a2.552,2.552,0,0,0-2.547-2.549h-4.643a6.874,6.874,0,0,0-6.867,6.865v.338a15.031,15.031,0,0,0-3.653,3.271,1.97,1.97,0,0,1-3.1,0c-2.984-3.737-7.8-5.962-14.306-6.61a48.832,48.832,0,0,0-12.415.519,2.759,2.759,0,0,0-2.3,2.727v.758c-.73.074-1.389.152-1.963.226a4.022,4.022,0,0,0-3.5,3.978v1.165H39.351A5.851,5.851,0,0,0,33.5,28.949V96.588a5.852,5.852,0,0,0,5.846,5.846h29.6l4.161,2.841a4.84,4.84,0,0,1,2.02,3.065v0a4.845,4.845,0,0,1,.092.933V112.7a1.055,1.055,0,1,0,2.11,0v-3.424c0-.031,0-.061,0-.091h2.719a1.055,1.055,0,0,0,0-2.11H76.97a6.947,6.947,0,0,0-2.673-3.541L68.39,99.5a2.173,2.173,0,0,1,2.276-3.7l3.556,1.966a1.055,1.055,0,0,0,1.566-.923V74.64a1.91,1.91,0,0,1,3.82,0V93.652a1.055,1.055,0,1,0,2.11,0V86.9a2.068,2.068,0,0,1,4.136,0v6.751a1.055,1.055,0,1,0,2.11,0V86.9a2.068,2.068,0,0,1,4.136,0v6.751a1.055,1.055,0,1,0,2.11,0V86.9a2.068,2.068,0,0,1,4.136,0v9.647a9.878,9.878,0,0,1-3.466,7.52A7.926,7.926,0,0,0,92.1,110.1v2.6a1.055,1.055,0,0,0,2.11,0v-2.6a5.818,5.818,0,0,1,2.041-4.429,11.986,11.986,0,0,0,4.205-9.125V86.9a4.173,4.173,0,0,0-7.3-2.766,4.16,4.16,0,0,0-6.247,0,4.155,4.155,0,0,0-5.188-.862V64.115a25.071,25.071,0,0,1,4.915,2.81,7.905,7.905,0,0,0,9.48,0c4.276-3.174,12.436-6.757,27.029-5.808a4.008,4.008,0,0,0,4.267-4V21.94a4.006,4.006,0,0,0-1-2.646Zm-63.5-2.315a.655.655,0,0,1,.544-.646c4.229-.715,18.514-2.446,24.721,5.327a4.087,4.087,0,0,0,2.145,1.41v29.52a1.055,1.055,0,1,0,2.11,0V23.069a4.085,4.085,0,0,0,2.146-1.41,12.5,12.5,0,0,1,2-1.992v7.04a2.009,2.009,0,0,0,1.437,1.933,2.044,2.044,0,0,0,.591.087,2,2,0,0,0,1.674-.9l1.247-1.872,1.245,1.872a2.019,2.019,0,0,0,3.7-1.116V21.723a1.055,1.055,0,0,0-2.11,0v4.683l-1.958-2.944a1.054,1.054,0,0,0-1.758,0l-1.958,2.944V16.734a4.756,4.756,0,0,1,4.757-4.755h4.643a.438.438,0,0,1,.437.439v1.209q-.643.041-1.292.106-.991.1-1.927.247l0,0,0,0c-.044.006-.089.013-.131.021a1.055,1.055,0,0,0-.817,1.028v3.039a1.055,1.055,0,1,0,2.11,0V15.949a37.689,37.689,0,0,1,4.8-.293,49.7,49.7,0,0,1,8.034.677.653.653,0,0,1,.542.646V52.965a.647.647,0,0,1-.211.481.654.654,0,0,1-.506.171c-15.2-1.357-23.1,3.336-26.46,6.253a2.015,2.015,0,0,1-.232.172V56.335a1.055,1.055,0,1,0-2.11,0v3.707a2.022,2.022,0,0,1-.233-.172c-2.946-2.562-9.4-6.494-21.226-6.494-1.638,0-3.381.076-5.232.241a.654.654,0,0,1-.506-.171.64.64,0,0,1-.213-.481ZM39.351,25.216h15.99v4.8H35.615V28.949a3.738,3.738,0,0,1,3.735-3.733ZM77.7,70.62a4.025,4.025,0,0,0-4.02,4.02V95.056l-1.99-1.1a4.281,4.281,0,0,0-5.617,6.147q.106.156.225.3c-.023-.028-.048-.055-.07-.083H39.351a3.74,3.74,0,0,1-3.735-3.735V89.9H68.874a1.055,1.055,0,0,0,0-2.11H35.615V32.124H55.341V57.116a4.008,4.008,0,0,0,4.267,4c8.842-.575,15.319.514,20,2.167v7.821A4,4,0,0,0,77.7,70.62Zm47.6-13.5a1.9,1.9,0,0,1-2.02,1.9c-15.233-.992-23.866,2.834-28.424,6.219a5.806,5.806,0,0,1-6.964,0c-4.058-3.014-11.347-6.377-23.653-6.377-1.511,0-3.1.051-4.772.158a1.9,1.9,0,0,1-2.02-1.9V21.94a1.906,1.906,0,0,1,1.659-1.885c.5-.065,1.068-.133,1.692-.2V52.965a2.769,2.769,0,0,0,3.018,2.754c14.424-1.287,21.783,3.045,24.885,5.744a4.094,4.094,0,0,0,5.343,0c3.1-2.7,10.461-7.032,24.887-5.744a2.765,2.765,0,0,0,3.016-2.754V19.857c.625.065,1.19.133,1.692.2A1.906,1.906,0,0,1,125.3,21.94Z" transform="translate(0 0)" fill="#7a2b58"/>
        <path id="Caminho_1721" data-name="Caminho 1721" d="M340.188,119.619a1.055,1.055,0,0,0,.667-.237c.191-.155,4.773-3.773,13.374-1.512a1.055,1.055,0,1,0,.536-2.041c-9.709-2.552-15.032,1.741-15.254,1.925a1.054,1.054,0,0,0,.676,1.865Z" transform="translate(-241.129 -82.961)" fill="#7a2b58"/>
        <path id="Caminho_1722" data-name="Caminho 1722" d="M340.18,148.553a1.051,1.051,0,0,0,.673-.243c.046-.038,4.7-3.788,13.37-1.508a1.055,1.055,0,1,0,.536-2.041c-9.708-2.552-15.032,1.741-15.253,1.925a1.055,1.055,0,0,0,.674,1.867Z" transform="translate(-241.123 -105.787)" fill="#7a2b58"/>
        <path id="Caminho_1723" data-name="Caminho 1723" d="M340.18,177.483a1.051,1.051,0,0,0,.673-.243c.046-.038,4.7-3.788,13.37-1.508a1.055,1.055,0,1,0,.536-2.041c-9.708-2.552-15.032,1.741-15.253,1.925a1.055,1.055,0,0,0,.674,1.867Z" transform="translate(-241.123 -128.612)" fill="#7a2b58"/>
        <path id="Caminho_1724" data-name="Caminho 1724" d="M197.486,117.118a1.056,1.056,0,0,0,1.289.752c8.594-2.26,13.176,1.351,13.373,1.511a1.055,1.055,0,1,0,1.344-1.627c-.222-.184-5.545-4.477-15.253-1.925a1.055,1.055,0,0,0-.752,1.289Z" transform="translate(-129.348 -82.961)" fill="#7a2b58"/>
        <path id="Caminho_1725" data-name="Caminho 1725" d="M198.239,144.76a1.055,1.055,0,1,0,.536,2.041c8.587-2.258,13.17,1.346,13.373,1.511a1.055,1.055,0,0,0,1.344-1.627C213.27,146.5,207.947,142.207,198.239,144.76Z" transform="translate(-129.348 -105.786)" fill="#7a2b58"/>
        <path id="Caminho_1726" data-name="Caminho 1726" d="M198.239,173.69a1.055,1.055,0,1,0,.536,2.041c8.587-2.258,13.17,1.346,13.373,1.511a1.055,1.055,0,1,0,1.344-1.627C213.27,175.431,207.947,171.138,198.239,173.69Z" transform="translate(-129.348 -128.612)" fill="#7a2b58"/>
      </g>
    </g>
  </g>
</svg>
