<svg xmlns="http://www.w3.org/2000/svg" xmlns:xlink="http://www.w3.org/1999/xlink" width="150" height="150" viewBox="0 0 150 150">
  <defs>
    <clipPath id="clip-_4-icone3">
      <rect width="150" height="150"/>
    </clipPath>
  </defs>
  <g id="_4-icone3" data-name="4-icone3" clip-path="url(#clip-_4-icone3)">
    <g id="Grupo_405" data-name="Grupo 405" transform="translate(-487 -6248)">
      <g id="Caminho_1263" data-name="Caminho 1263" transform="translate(488 6249)" fill="none">
        <path d="M74,0A74,74,0,1,1,0,74,74,74,0,0,1,74,0Z" stroke="none"/>
        <path d="M 74 3 C 64.41374969482422 3 55.11583709716797 4.876815795898438 46.36451721191406 8.578292846679688 C 42.15812683105469 10.35745239257812 38.100830078125 12.55970764160156 34.30531311035156 15.12391662597656 C 30.54510498046875 17.66427612304688 27.00906372070312 20.58177185058594 23.79541778564453 23.79541778564453 C 20.58177185058594 27.00906372070312 17.66427612304688 30.54510498046875 15.12391662597656 34.30531311035156 C 12.55970764160156 38.100830078125 10.35745239257812 42.15812683105469 8.578292846679688 46.36451721191406 C 4.876815795898438 55.11583709716797 3 64.41374969482422 3 74 C 3 83.58625030517578 4.876815795898438 92.88417053222656 8.578292846679688 101.6354827880859 C 10.35745239257812 105.8418731689453 12.55970764160156 109.899169921875 15.12391662597656 113.6946868896484 C 17.66427612304688 117.4548950195312 20.58177185058594 120.9909362792969 23.79541778564453 124.2045822143555 C 27.00906372070312 127.4182281494141 30.54510498046875 130.3357238769531 34.30531311035156 132.8760833740234 C 38.100830078125 135.4402923583984 42.15812683105469 137.6425476074219 46.36451721191406 139.4217071533203 C 55.11583709716797 143.1231842041016 64.41374969482422 145 74 145 C 83.58625030517578 145 92.88417053222656 143.1231842041016 101.6354827880859 139.4217071533203 C 105.8418731689453 137.6425476074219 109.899169921875 135.4402923583984 113.6946868896484 132.8760833740234 C 117.4548950195312 130.3357238769531 120.9909362792969 127.4182281494141 124.2045822143555 124.2045822143555 C 127.4182281494141 120.9909362792969 130.3357238769531 117.4548950195312 132.8760833740234 113.6946868896484 C 135.4402923583984 109.899169921875 137.6425476074219 105.8418731689453 139.4217071533203 101.6354827880859 C 143.1231842041016 92.88417053222656 145 83.58625030517578 145 74 C 145 64.41374969482422 143.1231842041016 55.11583709716797 139.4217071533203 46.36451721191406 C 137.6425476074219 42.15812683105469 135.4402923583984 38.100830078125 132.8760833740234 34.30531311035156 C 130.3357238769531 30.54510498046875 127.4182281494141 27.00906372070312 124.2045822143555 23.79541778564453 C 120.9909362792969 20.58177185058594 117.4548950195312 17.66427612304688 113.6946868896484 15.12391662597656 C 109.899169921875 12.55970764160156 105.8418731689453 10.35745239257812 101.6354827880859 8.578292846679688 C 92.88417053222656 4.876815795898438 83.58625030517578 3 74 3 M 74 0 C 114.8690643310547 0 148 33.13093566894531 148 74 C 148 114.8690643310547 114.8690643310547 148 74 148 C 33.13093566894531 148 0 114.8690643310547 0 74 C 0 33.13093566894531 33.13093566894531 0 74 0 Z" stroke="none" fill="#7a2b58"/>
      </g>
      <g id="_3274934_code_computer_course_school_science_icon" data-name="3274934_code_computer_course_school_science_icon" transform="translate(499.344 6238.23)">
        <g id="Grupo_441" data-name="Grupo 441" transform="translate(21.577 48.237)">
          <path id="Caminho_1709" data-name="Caminho 1709" d="M98.629,108.138h-71.1a5.954,5.954,0,0,1-5.954-5.954V54.191a5.954,5.954,0,0,1,5.954-5.954h71.1a5.954,5.954,0,0,1,5.954,5.954v47.992A5.954,5.954,0,0,1,98.629,108.138Z" transform="translate(-21.577 -48.237)" fill="none" stroke="#7a2b58" stroke-linecap="round" stroke-linejoin="round" stroke-miterlimit="10" stroke-width="3"/>
          <line id="Linha_28" data-name="Linha 28" x2="83.006" transform="translate(0 51.004)" fill="none" stroke="#7a2b58" stroke-linecap="round" stroke-linejoin="round" stroke-miterlimit="10" stroke-width="3"/>
          <g id="Grupo_440" data-name="Grupo 440" transform="translate(20.603 59.901)">
            <path id="Caminho_1710" data-name="Caminho 1710" d="M149.3,385.134v2.845a11.847,11.847,0,0,1-11.847,11.847h41.8" transform="translate(-137.454 -385.134)" fill="none" stroke="#7a2b58" stroke-linecap="round" stroke-linejoin="round" stroke-miterlimit="10" stroke-width="3"/>
            <path id="Caminho_1711" data-name="Caminho 1711" d="M305.916,385.134v2.845a11.847,11.847,0,0,0,11.847,11.847h0" transform="translate(-275.963 -385.134)" fill="none" stroke="#7a2b58" stroke-linecap="round" stroke-linejoin="round" stroke-miterlimit="10" stroke-width="3"/>
          </g>
        </g>
        <g id="Grupo_442" data-name="Grupo 442" transform="translate(47.891 68.345)">
          <path id="Caminho_1712" data-name="Caminho 1712" d="M176.64,161.331l-7.067,7.116,7.067,7.018" transform="translate(-169.573 -161.331)" fill="none" stroke="#7a2b58" stroke-linecap="round" stroke-linejoin="round" stroke-miterlimit="10" stroke-width="3"/>
          <path id="Caminho_1713" data-name="Caminho 1713" d="M304.043,161.331l7.067,7.116-7.067,7.018" transform="translate(-280.134 -161.331)" fill="none" stroke="#7a2b58" stroke-linecap="round" stroke-linejoin="round" stroke-miterlimit="10" stroke-width="3"/>
          <line id="Linha_29" data-name="Linha 29" x1="6.469" y2="14.133" transform="translate(12.03 0)" fill="none" stroke="#7a2b58" stroke-linecap="round" stroke-linejoin="round" stroke-miterlimit="10" stroke-width="3"/>
        </g>
      </g>
    </g>
  </g>
</svg>
