<svg xmlns="http://www.w3.org/2000/svg" xmlns:xlink="http://www.w3.org/1999/xlink" width="150" height="150" viewBox="0 0 150 150">
  <defs>
    <clipPath id="clip-_4-icone4">
      <rect width="150" height="150"/>
    </clipPath>
  </defs>
  <g id="_4-icone4" data-name="4-icone4" clip-path="url(#clip-_4-icone4)">
    <g id="Grupo_407" data-name="Grupo 407" transform="translate(-487 -6248)">
      <g id="Elipse_10" data-name="Elipse 10" transform="translate(488 6249)" fill="none" stroke="#7a2b58" stroke-width="3">
        <circle cx="74" cy="74" r="74" stroke="none"/>
        <circle cx="74" cy="74" r="72.5" fill="none"/>
      </g>
      <g id="_1860492_whatsapp_social_media_icon" data-name="1860492_whatsapp_social media_icon" transform="translate(516.053 6277.353)">
        <path id="Caminho_1729" data-name="Caminho 1729" d="M22.742,84.009c-2.634-1.646-15.474,7.9-17.45,5.6-1.975-1.975,6.585-15.474,4.939-17.779A43.443,43.443,0,0,1,2,46.147,44.447,44.447,0,1,1,46.447,90.594a41.65,41.65,0,0,1-9.219-.988" transform="translate(0 0)" fill="none" stroke="#7a2b58" stroke-linecap="round" stroke-linejoin="round" stroke-miterlimit="10" stroke-width="3"/>
        <path id="Caminho_1730" data-name="Caminho 1730" d="M20.466,9.044l3.951,9.877a1.2,1.2,0,0,1-.658,1.646c-1.646.988-3.951,3.292-1.317,6.914,3.292,4.609,12.182,16.133,19.425,8.56a1.448,1.448,0,0,1,1.646-.329l10.536,4.609a1.583,1.583,0,0,1,.658,1.975c-2.3,4.609-11.194,16.791-33.253-2.3C-.935,20.568,13.552,11.02,18.49,8.715,19.149,7.728,20.137,8.057,20.466,9.044Z" transform="translate(16.763 14.714)" fill="none" stroke="#7a2b58" stroke-linecap="round" stroke-linejoin="round" stroke-miterlimit="10" stroke-width="3"/>
      </g>
    </g>
  </g>
</svg>
